<?xml version="1.0" standalone="no"?>
<!DOCTYPE svg PUBLIC "-//W3C//DTD SVG 20010904//EN"
 "http://www.w3.org/TR/2001/REC-SVG-20010904/DTD/svg10.dtd">
<svg version="1.0" xmlns="http://www.w3.org/2000/svg"
 width="200.000000pt" height="200.000000pt" viewBox="0 0 200.000000 200.000000"
 preserveAspectRatio="xMidYMid meet">
<metadata>
Created by potrace 1.11, written by Peter Selinger 2001-2013
</metadata>
<g transform="translate(0.000000,200.000000) scale(0.100000,-0.100000)"
fill="#000000" stroke="none">
<path d="M1190 1805 c0 -17 -16 -20 -26 -4 -4 8 -9 7 -15 -2 -13 -21 -11 -61
5 -91 16 -31 15 -32 -47 -28 -44 2 -73 -16 -57 -35 8 -9 8 -15 0 -20 -7 -4 -7
-12 0 -26 6 -10 7 -18 3 -17 -39 11 -169 -41 -228 -90 -70 -58 -158 -73 -258
-42 -41 13 -77 18 -94 14 -31 -7 -81 -33 -100 -51 -16 -15 -59 -7 -98 17 -16
11 -81 71 -144 134 -63 63 -117 113 -120 111 -5 -2 -6 -122 -2 -171 2 -19 124
-138 191 -186 39 -27 90 -77 125 -123 35 -44 81 -89 110 -108 47 -29 56 -31
154 -33 57 -2 116 -6 130 -10 14 -4 32 -8 40 -10 34 -7 36 -18 32 -186 -1 -55
-3 -59 -38 -82 -36 -24 -222 -91 -230 -83 -1 2 2 18 8 36 10 27 9 40 -6 69
-14 31 -18 34 -26 19 -12 -21 -29 -22 -29 -2 0 8 -4 15 -9 15 -12 0 -41 -28
-42 -41 -5 -35 -4 -57 3 -78 7 -19 6 -22 -8 -17 -11 4 -15 2 -11 -8 4 -9 -7
-6 -30 10 -53 36 -123 31 -102 -7 7 -15 6 -19 -6 -19 -8 0 -15 -6 -15 -14 0
-16 45 -66 59 -66 5 0 22 -5 37 -10 l27 -11 -37 -32 c-42 -36 -57 -95 -23 -89
13 2 17 -2 15 -15 -8 -44 73 -8 101 45 12 22 20 30 21 20 0 -10 6 -18 14 -18
8 0 17 -8 20 -18 7 -20 56 -52 79 -52 10 0 13 7 10 21 -5 19 -4 20 16 10 18
-10 21 -9 22 6 2 34 -3 48 -32 90 -30 43 -30 47 3 44 33 -4 87 27 94 52 4 20
20 30 67 48 34 13 70 22 81 21 26 -2 58 -35 99 -105 36 -59 39 -96 9 -93 -32
2 -17 -56 24 -91 l37 -33 -26 -1 c-15 -1 -30 -2 -34 -3 -33 -8 -54 -20 -67
-41 -15 -23 -15 -25 -1 -25 12 0 15 -6 10 -19 -4 -14 0 -21 15 -26 27 -9 75 3
91 21 17 20 29 17 24 -6 -2 -11 1 -20 6 -20 5 0 9 -6 8 -12 -9 -46 34 -109 48
-71 6 14 7 14 19 -1 11 -16 13 -16 25 5 6 13 12 39 13 59 l1 35 50 1 c66 0 82
10 59 35 -16 17 -16 19 -1 19 10 0 17 4 17 8 0 13 -34 42 -49 42 -7 0 -21 5
-33 11 l-20 11 21 22 c26 28 33 81 11 81 -8 0 -20 6 -26 14 -16 20 -52 5 -70
-31 l-16 -31 -22 54 c-36 87 -87 188 -97 194 -5 4 -9 13 -9 21 0 8 -10 36 -23
62 -28 57 -35 143 -14 161 33 27 74 30 114 9 36 -19 113 -92 113 -106 0 -4 15
-17 33 -29 28 -19 70 -28 214 -49 19 -3 46 -20 70 -44 50 -50 98 -118 89 -127
-4 -4 -26 -6 -49 -5 -48 2 -92 -12 -124 -41 -30 -27 -29 -45 3 -53 l27 -7 -27
-14 c-35 -18 -22 -45 32 -62 43 -15 90 -10 136 14 37 20 37 19 26 -11 -13 -33
-13 -47 1 -38 8 4 9 -1 3 -17 -13 -41 -12 -84 2 -118 16 -38 43 -51 56 -28 11
21 28 22 28 3 0 -26 21 -29 45 -6 30 28 43 65 40 113 -3 41 -2 42 25 27 16 -9
18 -8 13 7 -5 14 0 12 27 -7 64 -46 193 -34 145 13 -21 21 -19 24 15 31 30 5
30 6 16 33 -26 51 -109 104 -133 85 -4 -4 0 3 10 15 18 20 18 21 0 25 -14 2
-9 8 19 25 45 27 70 62 72 105 1 30 -1 33 -26 31 -32 -2 -31 -3 -18 31 8 22 7
26 -8 27 -66 4 -108 -17 -145 -73 -23 -36 -26 -38 -32 -18 -6 20 -7 21 -21 3
-11 -14 -14 -15 -15 -3 -1 8 -1 18 0 23 1 4 -5 22 -13 40 -16 37 -51 72 -83
82 -20 6 -23 3 -23 -25 l0 -31 -47 28 c-73 42 -158 81 -189 89 -52 12 -238
105 -281 141 -58 46 -125 74 -192 80 -125 10 -347 89 -409 146 -54 49 -4 89
111 88 149 -2 224 -10 282 -31 114 -40 174 -48 326 -47 122 2 146 0 145 -12
-3 -38 89 -49 139 -16 19 11 21 11 20 -9 -1 -11 -7 -34 -14 -51 -13 -32 -8
-79 10 -102 10 -11 14 -10 25 4 12 17 13 17 19 1 19 -49 80 26 71 87 -4 21 -2
35 5 35 5 0 7 6 3 13 -4 6 7 -1 23 -16 53 -49 143 -54 128 -6 -4 13 -2 19 9
19 9 0 16 6 16 14 0 27 -40 63 -85 76 l-47 13 44 22 c44 22 68 54 68 92 0 20
-3 21 -25 13 -23 -9 -25 -8 -15 9 15 29 13 31 -20 31 -36 0 -100 -55 -100 -86
0 -15 -2 -16 -9 -5 -5 8 -14 10 -22 6 -9 -6 -11 -4 -6 8 10 26 -12 85 -40 107
-33 25 -39 25 -46 -2 -5 -18 -8 -19 -22 -8 -38 31 -44 -59 -8 -108 11 -15 22
-34 25 -44 6 -14 2 -15 -29 -6 -37 10 -79 4 -102 -15 -19 -16 -57 -16 -113 -1
-27 7 -49 13 -51 14 -1 1 -15 -4 -32 -10 -51 -20 -106 -13 -177 20 -38 18 -70
36 -73 40 -3 5 4 14 16 21 12 6 50 32 83 56 49 37 154 93 173 93 2 0 -3 -12
-10 -27 -14 -30 -15 -38 -2 -66 6 -14 10 -15 21 -6 11 9 14 8 14 -6 0 -12 5
-15 16 -11 9 3 17 6 20 6 9 0 31 57 28 73 -2 13 2 17 12 13 8 -3 14 -1 14 4 0
5 17 -2 37 -16 40 -27 69 -28 67 -1 -1 9 4 17 12 17 34 0 2 55 -46 80 l-25 13
27 9 c15 5 33 23 42 43 20 42 20 48 -3 42 -14 -3 -17 0 -14 14 9 32 -39 23
-83 -15 l-40 -34 4 29 c6 41 -5 77 -28 89 -16 9 -20 8 -20 -5z"/>
</g>
</svg>
